<?xml version="1.0" standalone="no"?><!DOCTYPE svg PUBLIC "-//W3C//DTD SVG 1.1//EN" "http://www.w3.org/Graphics/SVG/1.1/DTD/svg11.dtd"><svg t="1522675060008" class="icon" style="" viewBox="0 0 1024 1024" version="1.1" xmlns="http://www.w3.org/2000/svg" p-id="2160" xmlns:xlink="http://www.w3.org/1999/xlink" width="200" height="200"><defs><style type="text/css"></style></defs><path d="M905.462 64.85c35.46 0.072 58.23 15.642 67.24 44.57 13.42 43.11-17.259 81.664-66.36 81.781-151.961 0.359-303.907 0.144-455.859 0.149-78.617 0-264.77 0.179-343.398-0.113-32.42-0.113-55.06-14.848-64.799-40.755-16.358-43.54 14.188-85.315 63.928-85.535 115.733-0.512 338.99-0.164 454.713-0.164 114.841-0.015 229.693-0.143 344.535 0.067zM905.462 834.55c35.46 0.071 58.23 15.641 67.24 44.574 13.42 43.11-17.259 81.66-66.36 81.782-151.961 0.359-303.907 0.138-455.859 0.149-78.617 0-264.77 0.179-343.398-0.118-32.42-0.108-55.06-14.848-64.799-40.75-16.358-43.54 14.188-85.315 63.928-85.535 115.733-0.512 338.99-0.169 454.713-0.169 114.841-0.015 229.693-0.143 344.535 0.067zM905.462 573.44c35.46 0.072 58.23 15.642 67.24 44.57 13.42 43.11-17.259 81.658-66.36 81.781-151.961 0.359-303.907 0.139-455.859 0.149-78.617 0-264.77 0.179-343.398-0.118-32.42-0.107-55.06-14.848-64.799-40.75-16.358-43.54 14.188-85.32 63.928-85.54 115.733-0.512 338.99-0.159 454.713-0.159 114.841-0.015 229.693-0.143 344.535 0.067zM905.462 317.435c35.46 0.072 58.23 15.641 67.24 44.575 13.42 43.11-17.259 81.658-66.36 81.781-151.961 0.359-303.907 0.139-455.859 0.149-78.617 0-264.77 0.179-343.398-0.118-32.42-0.107-55.06-14.848-64.799-40.75-16.363-43.546 14.182-85.325 63.923-85.545 115.733-0.512 338.99-0.164 454.713-0.164 114.846-0.01 229.698-0.138 344.54 0.072z" fill="" p-id="2161"></path></svg>