<?xml version="1.0" standalone="no"?><!DOCTYPE svg PUBLIC "-//W3C//DTD SVG 1.1//EN" "http://www.w3.org/Graphics/SVG/1.1/DTD/svg11.dtd"><svg t="1522675078156" class="icon" style="" viewBox="0 0 1024 1024" version="1.1" xmlns="http://www.w3.org/2000/svg" p-id="2280" xmlns:xlink="http://www.w3.org/1999/xlink" width="200" height="200"><defs><style type="text/css"></style></defs><path d="M124.992 199.008q-26.016 0-44-18.496T62.976 136t18.016-44 44-18.016h750.016q26.016 0 44 18.016t18.016 44-18.016 44.512-44 18.496H124.992zM750.016 324q26.016 0 44 18.016t18.016 44-18.016 44.512-44 18.496h-500q-26.016 0-44-18.496T188 386.016t18.016-44 44-18.016h500z m124.992 248.992q26.016 0 44 18.496T937.024 636t-18.016 44-44 18.016H124.992q-26.016 0-44-18.016t-18.016-44 18.016-44.512 44-18.496h750.016zM750.016 823.008q26.016 0 44 18.496t18.016 44.512-18.016 44-44 18.016h-500q-26.016 0-44-18.016t-18.016-44 18.016-44.512 44-18.496h500z" fill="" p-id="2281"></path></svg>