<?xml version="1.0" standalone="no"?><!DOCTYPE svg PUBLIC "-//W3C//DTD SVG 1.1//EN" "http://www.w3.org/Graphics/SVG/1.1/DTD/svg11.dtd"><svg t="1522675040598" class="icon" style="" viewBox="0 0 1024 1024" version="1.1" xmlns="http://www.w3.org/2000/svg" p-id="2040" xmlns:xlink="http://www.w3.org/1999/xlink" width="200" height="200"><defs><style type="text/css"></style></defs><path d="M223.819 701.828c-15.91-0.14-33.86-3.98-47.17-12.14-24.42-14.99-31.26-42.69-22.34-70.05 9.11-27.98 31-42.93 68.53-43 228.759-0.37 457.519-0.4 686.283 0.34 15.11 0.05 31.98 4.49 44.895 12.16 23.96 14.22 31.995 42.99 23.75 69.79-8.435 27.4-29.97 43.16-62.365 43.25-116.585 0.36-233.174 0.14-349.764 0.16-113.939 0.02-227.889 0.48-341.819-0.51zM910.583 64.847c35.455 0.07 58.23 15.64 67.235 44.57 13.42 43.11-17.255 81.665-66.36 81.78-151.96 0.36-303.909 0.145-455.859 0.15-78.62 0-264.769 0.18-343.399-0.115-32.42-0.115-55.06-14.85-64.8-40.755-16.36-43.54 14.19-85.315 63.93-85.535 115.73-0.51 338.989-0.165 454.709-0.165 114.849-0.01 229.699-0.14 344.544 0.07zM598.038 446.896c-104.31 0-208.639 0.255-312.949-0.125-42.36-0.155-70.19-25.74-70.11-62.735 0.09-37.105 27.88-63.545 69.95-63.63 208.639-0.4 417.269-0.5 625.898 0.465 15.685 0.075 33.355 6.295 46.535 15.035 22.425 14.88 28.65 43.3 19.805 68.71-9.19 26.395-30.085 41.85-60.885 41.98-106.08 0.465-212.164 0.18-318.244 0.18v0.12z m315.81 386.502c40.11 0.19 67.385 26.74 67.12 62.94-0.265 36.01-27.98 62.69-67.715 62.76-210.384 0.33-379.819 0.44-590.203-0.48-14.79-0.07-31.51-6.26-43.85-14.69-21.95-14.99-28.21-43.56-19.5-69 8.79-25.61 30.55-41.35 61.29-41.48 106.08-0.44 171.2-0.17 277.269-0.19 105.199-0.03 210.394-0.38 315.589 0.14z" fill="" p-id="2041"></path></svg>