<?xml version="1.0" standalone="no"?><!DOCTYPE svg PUBLIC "-//W3C//DTD SVG 1.1//EN" "http://www.w3.org/Graphics/SVG/1.1/DTD/svg11.dtd"><svg t="1522674917603" class="icon" style="" viewBox="0 0 1024 1024" version="1.1" xmlns="http://www.w3.org/2000/svg" p-id="1875" xmlns:xlink="http://www.w3.org/1999/xlink" width="200" height="200"><defs><style type="text/css"></style></defs><path d="M73.485 0h877.03c39.937 0 71.887 31.95 71.887 73.485 0 39.938-31.95 73.485-73.485 73.485H73.485C31.95 145.373 0 113.423 0 73.485 0 31.95 31.95 0 73.485 0zM73.485 292.343h584.687c39.937 0 73.485 31.95 73.485 73.485 0 39.938-31.95 73.486-73.485 73.486H73.485C33.548 439.314 0 407.364 0 365.828c0-41.535 31.95-73.485 73.485-73.485zM73.485 584.686h877.03c39.937 0 73.485 31.95 73.485 73.486 0 39.937-31.95 73.485-73.485 73.485H73.485C33.548 731.657 0 699.707 0 658.172s31.95-73.486 73.485-73.486zM73.485 877.03h584.687c39.937 0 73.485 31.95 73.485 73.485 0 39.937-31.95 73.485-73.485 73.485H73.485C31.95 1022.402 0 990.452 0 948.917c0-39.937 31.95-71.887 73.485-71.887z" fill="" p-id="1876"></path></svg>